<svg id="Layer_1" data-name="Layer 1" xmlns="http://www.w3.org/2000/svg" viewBox="0 0 870.17 993.86">
  <path d="M461.77,245.47c-.1-.88-.43-2-1.31-.78-1,1.44-1.46,3.27-2.29,5.29l-3.71-2.25c2.43.84,3.51.21,3.93-2.45.7-4.5,1.78-8.94,2.38-13.67-3.32,4.42-8.34,4-12.81,5,3.94-2.72,9.4-3.09,12.24-8-1.62-.89-2.12,1.53-3.58.88,1.7-2.76,4.46-4.68,5-7.94h0c4.82.42,4.85,6.63,8.85,7.6s6.57,3.27,9.26,5.8a175,175,0,0,0,17.15,14.33c3.08,2.23,6.28,4.3,9.37,6.52s5.65,1.76,8.41-.73c4.14-3.74,7.05-8.78,12.15-11.49a1.6,1.6,0,0,0,.46,2.53q6.66,4.72,13.34,9.41c.64.45,1.22.19,1.62-.47.28-.37.82-.76.79-1.1q-1-10.08-2.06-20.14c-.12-1.12-1.15-.89-1.94-.89,1.63-2.7,5.06-3,7.21-5.4-2.49-1.72-5.15-.36-8.13-.79,4.32-1.19,8.22-.86,12-.34,2.87.39,4.07-.38,3.89-3.31-.09-1.33.16-2.66.2-4,.13-4.42,1.64-7.65,6.91-7.83-.68,3.9-1.41,7.84-2,11.8-.3,1.93-1,4.28,2.41,4,2.57-.2,6.37,2.17,6.59-3.16a193.82,193.82,0,0,1,3.13-26.22c2.45-13.56,6.12-26.66,16.84-36.44.47-.42,1-.76,2.18-1.67-2,6.71-6.59,11.14-8.62,17.23l3.82-2.59.69.64c-1.5,1.54-3,3.06-4.49,4.62-5.69,6-6.53,12.41-2.49,19.59,3.27,5.83,7.91,10.48,13.41,14.72-4.19,2.17-8.93,1.28-13,4.13,4.61,1.62,9.09.66,13.42,1.35-.65,1.11-2.71-.21-2.92,1.75-.18,1.73,1,2.34,2.13,3s2.71,2.09,3.94,2c3.1-.36,4.53,1.39,5.9,3.53.78,1.21,1.82,2,3.27,1.7,1.88-.43.6-1.9.71-2.89s-.78-2.62,1-2.83c1.46-.17,1.72,1.24,1.8,2.45.22,3.1.58,5.14,4.4,2.34a3.25,3.25,0,0,1,5,2.33c.22,2.67,1.53,2.36,3.37,2.64a41.94,41.94,0,0,0,24.59-3.42c1.71-.8,2.94-1,2.1-3.66-.94-3,1.85-4.81,5.07-3.65.88.32,1.6.48,2.17-.35a2,2,0,0,0,.38-1.34c-.2-1.08-1.15-1-2-1a66.7,66.7,0,0,1-11.52-.7c2.9,0,5.81.06,8.71,0,1.27,0,2.95.66,3.73-.64,2.76-4.58,3.89.35,4.87,1.17,1.52,1.26,1.11,1.68,1.67,1.62,1.28-.15,1.69-.79,1.42-2-.21-1-.25-2-.4-2.92s-.59-2.08.73-2.54,1.8.56,2,1.56c.45,2.49,2,3.36,4.29,2.87,3.06-.64.85-2.54.78-3.89,0-.94.09-1.68,1.1-1.9s1.49.44,1.76,1.3a13.33,13.33,0,0,0,.93,2.82c.6,1,.71,2.49,2.8.6,2.64-2.4,5.6-.81,6.4,2.63.11.48.1,1.42.14,1.42,5.14,0,6.1,6.58,11,7a2.76,2.76,0,0,1,2.41,1.18c3.81,5.12,8.82,9,14,12.66.33.24,1.23.07.92.73-2.56,5.42.21,10.72.4,16.06.09,2.43-2.17,4.78-.16,7.27.33.42.05,1.34-1,1.15-1.26-.24-2.66-1-2.86,1.3a3.19,3.19,0,0,0,2.57,3.69c3.58,1,4.64,3.79,5.1,7.18-1.08-.5-2-1.3-3-1.33-4.95-.1-6.92-2.8-7.41-7.43s-3.81-4-7.36-3.35c1.46,4.46,2.86,8.7,4.37,13.32l3.36-3.68c.53,5.91,5.39,6.24,8.88,6.66,2.71.33,3.15,1.22,3.48,3.15q2.52,15.26,5,30.51c4.56,28.07,9.85,56,13.47,84.23,3.8,29.53,11.3,58.44,14.06,88.11.81,8.76,1.76,17.55,1.11,26.53a80,80,0,0,0,8.51-20.44c3.28-12.93,3.91-26.3,5.57-39.49,1.45-11.53,3.08-23,5.41-34.41,2.66-13,3.28-26.37,4.37-39.64,2-24.91,3.27-49.79.68-74.7-1-9.76-2.07-19.65-5.22-28.93-3.49-10.29-2-19.88,1.67-30.07,4.37,2.85,6.28,7.15,7.89,11.64,12.09,33.52,16.27,68.15,14.49,103.61-.77,15.29-.91,30.63-3,45.84-.15,1.13-.12,2.29-.21,4.32,10.31-5.08,18.94-11,26.09-19.35,8.75-10.2,9.92-22.53,11.16-35a223.83,223.83,0,0,1,8.31-42.06c1.93-6.42,6.59-11.49,9.47-17.5,8.78-18.29,13-37.61,14.1-57.76.26-5,.75-10,1.23-14.93.23-2.38.73-4.92,3.8-4.94s3.65,2.41,3.85,4.87a369.73,369.73,0,0,1,.48,56.38c-1.14,15.27-2.14,30.55-3.1,45.84-1.05,16.61-3.69,33.05-5.12,49.61a227.18,227.18,0,0,1-11.28,54.55c-8.66,25.22-20.21,49.11-33.57,72.21-8.42,14.54-16.42,29.34-26.09,43.08-21.62,30.73-41.25,62.93-67,90.61-9.44,10.14-20.63,17.79-32.61,24.44A146.54,146.54,0,0,0,663,686c-6.5,6-13.76,10.43-22.48,12.32-5.09,1.11-6.87-.43-5.36-5.31a204.88,204.88,0,0,1,13.47-33.78c3.15-6.09,8.22-9.89,14-13,1.89-1,4.26-1.75,1.87-4.58a2.15,2.15,0,0,1-.08-1.92c3.28-6.71-1.24-7.69-6.17-9.44-10.41-3.69-19.77-9.32-27.31-17.62-3.18-6.52-8.6-11.4-12.68-17.27-.17-.25-.9-.12-1.36-.17-5.08-5.42-8-12.14-11-18.74a189,189,0,0,1-12.82-40.29,493.79,493.79,0,0,1-9-62.89c-.05-.6-.14-1.2-.33-2.78-5.53,6.89-11.23,12.34-18.19,16.38-2.75,1.6-4.46,2.05-6.82-1-9.48-12.44-19.48-24.48-28.71-37.12-1.09-1.49-.78-2.07-.24-3.56,1.35-3.72,3.31-7.21,4-11.19,1-5.78-3.61-3.71-6.08-4.56-3-1-3.84.46-3.53,3.24a6.3,6.3,0,0,1-.19,3c-4.54,11.17-3.27,23.68-8.25,35.37-11.52-12.72-24.69-23.37-36.71-35.26-1.42-1.41-2.74-2.93-4.27-4.22A91.21,91.21,0,0,1,446.86,391a15.48,15.48,0,0,0-1.19-2.06c-3.85,5.71-9.44,2.15-14.18,3.17-.35,1.84,1.79,3.14.85,6.14-1.39-7.34-6.52-7.7-11.67-8.45-5.4-.79-10.72-2.12-17.06-3.41a130.74,130.74,0,0,0,10,20.61c8.36,13.59,21.62,20.87,35.6,27a436.84,436.84,0,0,1,41.09,20.35c3.68,2.09,7,4.13,9.24,8.48,4.33,8.38,9.95,16.11,15.16,24,1.82,2.76,2.37,4.47-.81,7.14a218.86,218.86,0,0,1-24,17.32c-6.9,4.36-14,7.07-21.42,9.64-6.32,2.19-12.64.85-18.68-1.47-7.18-2.77-14.62-4.9-21.09-9.46-2-1.39-5.54-3.45-8.26,1.05,0-2.78-.94-4.35-3.23-5.1-6.66-2.17-12.23-7.15-19.57-7.7a2.32,2.32,0,0,1-1.48-1.72c.07-4.85-3.64-4.28-6.57-4.64-8.75-1.07-15.79-6.08-23.3-10-5.45-2.85-10.87-5.77-16.37-8.53-2-1-3.71-1.71-1.7-4.26,1.54-1.95.31-3-1.51-3.65-8.44-3.22-16.76-6-26.13-3.21-6,1.78-12.37,2.56-18.32,4.74-1.64.61-2.51.66-3.56-1.11s.17-2.41,1.13-3.09c11.34-7.95,19.91-18.37,27.94-29.56,7.84-10.93,19.72-17.76,29.9-26.28,4.94-4.13,7.17-8.78,7-15.1-.12-3.35-1.27-4.44-4.44-3.82a24.08,24.08,0,0,1-4.47.49c-4.42,0-8.75,0-6,6.57a1.92,1.92,0,0,1-.74,2.22c-2.87,2.39-.46,3,1.53,3.61-1,1.51-2.38.64-3.35,1.2a1.39,1.39,0,0,1-2-.84c-.84-2.16,1.12-.51,1.5-1,1.17-1.53-.52-2.76-.47-4.19.8.33,1.64.57,2-.57,1.65-5.84-3.18-15.91-9.22-18.64,1.62,4.43.12,9.06,2.23,13.19-.49,0-1.25-.13-1.42.12-7,10.33-18.36,15.65-27.18,23.93-14.06,13.2-27.17,26.85-33.5,45.59-3.69,10.93-4.79,22.29-5,33.76-.21,14.47-.59,28.94,2.66,43.23.76,3.34,1.54,3.62,4.45,2,7.84-4.39,15-10.1,23.81-12.69l-.09-.11c0,2-.9,2.63-3,2.88-4.35.51-6.23,3.28-5.57,7.69.44,2.94.58,6,1.3,8.83s-1.69,4.1-2.61,6.06C284.23,574.5,267.62,592,244.42,603c-4.48,2.12-9,4.36-14,5.15s-7.24,4-8.47,8.47a147.84,147.84,0,0,1-6.69,20.33c-10.21,23.45-26.72,41-49.28,53-6.86,3.63-8.92,3-13.59-3.23A212.13,212.13,0,0,1,137,663.34c-1.21-2.18-2.45-4.51-4.66-5.78-14.74-8.42-21.08-22.88-27.35-37.5A226.28,226.28,0,0,1,91.8,577.33a7.21,7.21,0,0,0-1-1.57c-8.63,8-17.12,15.93-25.59,23.85Q54.11,610,43,620.47c-3,2.88-6,4.08-9.47.56S30,614.59,34,610.8c16.88-16.32,33.52-32.91,50.94-48.62,6.49-5.85,7.54-16.74,6.14-24.89-4.11,3.81-7.93,7.35-11.74,10.91L13.26,610c-4.53,4.23-6.53,3.73-12.26-3v-3c8.78-10,19-18.59,28.54-27.86,17.9-17.42,36-34.66,54-52,1.34-1.29,3.55-2.48.36-4.31a1.71,1.71,0,0,1,0-3c3.06-2.19,1.86-4.86,1.14-7.55A444.82,444.82,0,0,1,71,426.4c-1.2-15.92-2.92-31.79-2.78-47.78.08-8.88,1.84-17.51,4.09-26A22,22,0,0,1,82,339.27c10.68-7,20.91-14.77,31.52-21.93,4.86-3.28,6.61-2.48,7.7,3.41a230.76,230.76,0,0,0,15.61,52c5.53-5.77,10.74-11.26,16-16.7,3-3.12,6.14-6.1,9.11-9.26,1.42-1.52,4.69-2.93.73-5.39-1.05-.65-.35-1.84.3-2.62,2.31-2.79,4.23-6.19,7.12-8.14,2.71-1.83,3.53-3.93,4.3-6.74,2.28-8.31,4.92-16.52,7.31-24.8a44.31,44.31,0,0,1,11.64-19.35c2.08-2.07,2.44-3.59-.72-5.15-4.48-2.23-8.1-5.68-11.64-10.16-2.06,6.59,0,12.31.84,18.17-5.21-7.4-9.18-27.23-8.4-41.94,1.65,1.18.18,3.07,1.24,4.36,1.08-1.21.19-2.87.85-4s-.36-2.83,1.93-3.39c4.33-1,2,2.46,2.93,4.15l3.31-6.14c-2.83,6.64-.93,12.27,3.75,17.27a89.21,89.21,0,0,0,14.85,12.49c2,1.37,3.31.61,4.08-.85,1-2,5.19-2.83,3-5.79s-.5-4.46,1.27-6.61c-4.1-.42-4.08-3.71-5.28-6.44-3.59-8.2,3.69-10.69,8.09-15-6.93-3.57-13.81-6.1-18.91-11.51-1.81-1.92-3.21-.67-4.48.84.37-4,2.87-7,5.06-10.15,1.23,6.23,10.3,14,16.52,14.32,2.25.13,2.41-1.13,2.48-2.75.34-7.74,3.76-14.35,7.74-20.72,1.59-2.55,5.32-5.92,4.67-7.28-1.34-2.78-5.87-2-8.78-3.55-3.39-1.79-6.5-2.35-8.87,1.55L203,185.92c.94-.94,1.52-2.06,0-2.79-5.05-2.48-10-5-14.46-8.58-1.14-.92-2.39-.86-2.74,1.21a51.63,51.63,0,0,0,1.46,23.12c.81,2.88,2.31,2.11,3.65.23-1.55,4.45-4.55,8-7.85,13.31.79-4-.59-5.82-2-7.82-4.45-6.33-5.78-13-2.7-20.57,4.17-10.25,10.07-19.2,18.82-25.89s17.1-13.94,29-15.16c4.21-.44,8.58-3,12.08-5.7,7-5.29,15.36-6.44,23.25-9.09,2.35-.79,4.7-1.61,7-2.55s4.17-3.13,3.34-4.94c-1.92-4.2.34-6.5,2.67-9.13.6-.68,1.75-1.39,1.2-2.47a2.54,2.54,0,0,0-3.08-1c-1.89.66-3.47,1.24-4.1-1.64-2.2,2.34-.68,5.64-2.86,7.55-4-8-11.87-8.54-18.82-7.9s-12.68-3.24-19.26-3.42c-8.12-.21-15.94-2.66-23.91-4-1.6-.27-3.14-1.88-4.34-3.21-1-1.08.8-1.47,1.18-2.24.86-1.72,2.21-1.06,3.47-.87q35,5.26,69.9,10.58a5,5,0,0,0,4.92-1.7c1.12-1.37-.61-2.33-1-3.5-.3-.93-.59-1.86-.89-2.79,2,.34,2.2,2.81,4.29,3.54,1.78-4.85,2.44-9.93,3.67-14.86,2.25-9,3.87-18.48,11.86-24.81-.26,1.77-.53,3.55-.79,5.32l.14-.2c-4.71,7-6.67,15-7.85,23.26-.68,4.76-2.85,10-1.59,14.2,2.19,7.3,3.36,14.77,5.12,22.12,2.77,11.55,7.55,22.22,12.52,32.86-3.67-2.4-3.85-7.27-6.94-10.25-.9,2.1.09,4.16-1.08,6a2,2,0,0,0,1.37,3.08c2.12.49,3.89,3.74,6.51,1A121.16,121.16,0,0,1,321,171.58l1.12,1.52-.27,1.21c-2.38-1.05-3.85-3.15-5.51-5-1.87-2-3.31-3.2-4.54.73-2.15-5.06-3.33-5.36-6.32-1.39-6.19,8.23-12.13,16.64-18.17,25a4.68,4.68,0,0,0-.93,4.6c3.05,9.31,7.66,17.8,13.23,26.77.54-6.86,1-12.85,1.49-18.85l.18.07v31.67c-1.58-5.41-1.52-11.09-5.85-15.36-3.37,5.19-3.36,5.18-.7,10,3.5,6.39,6.86,12.64,4.61,20.54-.77,2.69-1.41,6.19.57,9.1h0a5,5,0,0,0-3.62,5.85c1.94,9.32,2.9,18.9,6.75,27.77.76,1.75,1.71,3.52.41,5.8a21.23,21.23,0,0,0-5.19-9.12c-.83-.84-2-2.1-.38-3.39.86-.7,1.51-1.64.64-2.49-1.14-1.13-2.18.23-3,.77-6.43,4.17-13,8.18-20.15,10.88-12.35,4.68-23.73,10.2-27.88,24.45.29-5.52,3.08-9.69,6-13.55,2.15-2.79,1.11-3.44-1.36-4.42-6.38-2.52-13.24-3.28-19.72-5.38a11.91,11.91,0,0,0-8.22.36c-6.64,2.44-12.62,7.1-20.28,6.2l.1.1c-4.31-3-8.77-2.06-12.66,1.88-1.71,1.72-1.94,5.46-5.89,4.74-1.38-.25-1.26,1.05-.72,2.09.77,1.5,11.6,7.94,13.13,7.37,5.9-2.21,11,1.18,16.42,2,1.54.25,1.34,1.64,1.92,2.53v0c-1.91-3.19-5-2-7.59-1.72-1.63.14-2.07,1.36-.43,2.71,6.67,5.52,14.25,9.6,21.87,13.57,5.12,2.67,7.49,1.84,11.18-4-2.53,9.41-6,17.36-7,26-1.9,15.87-4.07,31.71-1.13,47.7.52,2.83,1.16,5.51,4.79,6.54-.56-2.82-1.08-5.47-1.72-8.73,2.24,2.63,6.67,1.62,7,5.69s1,7.55,6,8.5c-3.59-.2-7.08,1.08-10.4-2.08.22,4.2,3.52,5.32,5.07,7.65.57.85,1.13.06,1-.68-.5-2.55,1.17-1.28,2-1.12,1.38.27,3.18.1,3.1,2.37-.19,5.91,3.82,9.55,7.81,12.59,5.77,4.4,9,9.7,9.17,16.93-1.33.62-2.62-1.72-4.3.26,1.68,1.66.15,5,3.28,6.1-2.95,2.28-6.69,3.46-9.18,6.43,1.94,3.12,7.35,2.71,7.14,7.61-.28,6.52,6.89,1.15,8.24,5.12,0,.08.31.07.48.1,1.95-8.64,1.95-8.64-2.55-9.47,5.59-.49,6-5,5.24-8.08-.55-2.19-4.49-3.55-7.71-2.14a132.86,132.86,0,0,1,12.06-19.44c3.66-5.13,7.64-10.1,10-16A159.16,159.16,0,0,1,301,407.49c7.28-12.23,17.08-22.46,26.45-33,1-1.13,2-1.9,1.9-4.11-.54-8.76-7.48-13.29-13.41-15.62-8.23-3.24-17.45-5.36-26.76-4.85-5.39.29-7.46-1.51-8.24-7-.76-5.26,3.16-9.21,8.1-7.66,6,1.89,12.15,2,18.27,1.78,2.77-.12,6.54,2.53,8.31-1.75,1.14-2.73,3.95-4.54,4-7.87,1.89,5.94,3.71,11.8,5.08,17.76.79,3.44,2.45,5.62,5.73,6.84,7.11,2.63,13.74,6.29,20.5,9.67,2.22,1.11,4.41,3.17,7.73,1.89-2.82-.64-3.15-2.84-4.06-4.76-2.44-5.18-2.42-11.4-6.69-15.79l-.11.09c1.89-1.63,1.07-3.46.52-5.37-1.5-5.24-2.88-10.5-4.3-15.75,1.83,2.79,2.49,5.77,6.58,7,13.45,4.16,27.06,4.47,40.9,3.53,3.26-.23,3.72-1.45,3.73-4.24,0-8,.09-16-3.62-23.47a23.71,23.71,0,0,0,16.45,3.09c-1.15,2-3.53,3.93-.73,6.77l-12.68-5.18c1.26,7.38.79,14.09,1.18,20.78.6,10.45,1.45,20.9,2,31.36.13,2.61.5,3.93,3.34,2.55a4.47,4.47,0,0,1,1-.18c11.61-2.37,11.61-2.37,12.27-14,.75,11.13.75,11.13,12,9,1-.18,2-.4,2.92-.63,8.89-2.14,10-3.93,8.23-13-.15-.78-.37-1.95-.89-2.18-4.41-1.95-5.15-6.11-6.32-10,6.05.7,6.08.51,6-5.56-.22-11.3-2.2-22.54-1-33.88a21.13,21.13,0,0,1,.91-4.86c-1.31,10.36,0,20.66.59,31,.24,4,.67,7.92.91,11.88.08,1.38.6,3.17-1.86,3.21-3.25.06-2.59,1.25-1.11,3.22,2.07,2.78,5.72,5,4.29,9.41-.19.59.11,1.44,1,1.24.59-.13,1.44-.51,1.58-1,.39-1.24,1-2.77.57-3.84-2-5.3,1.72-8.53,3.95-12.4,1-1.71,2.06-1,2.8-.38a2.93,2.93,0,0,0,4.89-1.21c1-3.79,4.35-5.66,6.17-8.71s1.13-5.48-.54-8.32-5.56-5.09-2.92-9.84c1-1.88-.43-5.14-.76-7.82-1.45.68.86,4.22-2.62,3.15-.16,0-.54.62-.82,1a9.53,9.53,0,0,1-.66-1.8c-.64-3.77-1.35-7.51-4.37-11.81,3.8,1.94,3.46,5.38,6.38,7.49.44-7.19,1.76-13.8-2.41-20.33,2.53.17,1.69,2.07,3.16,2.77,3.71-9.88,5.4-20.22,7.34-30.49,0,1.94,0,3.89,0,5.84a157.87,157.87,0,0,0,4.47-19.2c.29-1.56.62-3.13-1.61-3.33-2.78-.26-1.44,2-1.73,3.16C461.9,236.26,464.07,241.07,461.77,245.47ZM686,344.21c-.69,1-2.11,2-.85,3.33,1,1,2.48.56,3.74.27a3.11,3.11,0,0,0,2.68-3.58c-.51-3.68-.2-7.53-2.46-11.58.14,2.35.24,4.06.34,5.76-2.08-.34-2.55,1.81-3.93,2.56-2.4,1.3-4.67,3.66-7.11,3.82-2.2.15-5-1-7.76-4.14C674.25,348.62,680.25,349.47,686,344.21Zm-53.46-71c1.88-1.6,1.81-11.21-.15-12.74a1.28,1.28,0,0,0-2.16.88c.34,4-1.27,8.47,2.44,11.77-.73.83-1.55,1.41-1.31,2.91q2.94,18.17,5.6,36.4c.31,2.1,1.11,2.88,3.22,2.62,2.49-.3,1.75-1.91,1.52-3.32-2-11.74-3.93-23.48-5.86-35.23C635.51,274.58,635,272.93,632.53,273.25ZM197.63,369c-7.33,7.53-13.91,14.31-20.51,21.07a4,4,0,0,0-1.11,3.16q.21,6.72.34,13.45c0,1.88.53,2.69,2.68,2a189.28,189.28,0,0,1,25.6-6.27c2-.32,2.55-.73,1.75-2.8C202.72,390.15,200.66,380.22,197.63,369ZM145.7,497.42c3.92-.73,6.9-1.77,10.07-1.27,1.44.24,1.63.81,1.37,1.9s-1,.76-1.88.51c-4.63-1.38-11.17.95-13.73,4.8-.45.67-1.22,1.27.18,1.74,2.88,1,2.25,2.87,1.66,5.18a8.56,8.56,0,0,0,2,7.42c1.23,1.55,3,2.77,3.92,4.46,1.57,2.82,1.38,2.93,3.8,2,4.68-1.8,7.17-5.12,7.14-10.22,0-3.15-.25-6.32,0-9.45.27-3.52-.17-7.31,3.45-9.82,2.1-1.46.91-2.67-.84-3.62C158,488.44,150.13,491,145.7,497.42Zm21.39-134.65-1.35-1c-6.37,6.68-12.51,13.62-19.21,20-3.54,3.34-4,5.91-1.54,10.08,4.11,7,3.86,7.18,9.64,1.23,3.46-3.56,8.35-6.63,9.9-10.91C166.7,376.15,166.36,369.27,167.09,362.77ZM122.89,505c0-6.22-.42-11.9,4.36-16.3,1.66-1.53,1-3.29-.67-4.68-2.08-1.73-4.21-2-6.92-1.31-4.53,1.1-6.06,6.14-10.51,7.33-1.44.38-1.06,2.67-1,4.09.09,1.75,1.45,1.09,2.59,1.16,1.6.09,4.11.74,3.23,2.68-2.27,5.07-2.81,9.46,1.81,13.5.52.46.2,1.92.2,2.91,0,2.94,1.15,2.81,3.36,1.59C124.39,513.17,122.46,508.46,122.89,505Zm555.62-35a3.66,3.66,0,0,0,.08-3q-6.32-25.77-12.61-51.57c-.42-1.72-.88-3.28-3.25-2.6-2.58.73-1,2.51-.77,3.63q4.59,21.17,9.43,42.26c1,4.14,1.39,8.35,3.09,12.45.77,1.87,1.12,1.85,2.45,1.82C679.32,472.93,679.37,471.64,678.51,470ZM555,233.51c.37,3.81.84,7.43,1,11.06.15,2.65,1.13,2.55,3,1.44,4.25-2.47,9-2.63,13.51-1.53,4.08,1,6.54,1.7,9.05-3.35,1.92-3.86.58-4.21-1.93-4.87-7.19-1.88-14.44-3.54-21.66-5.29C555.69,230.41,554.45,231.07,555,233.51Zm86.68,23.81c.1.85.13,1.64.3,2.41,3.15,14.28,6.25,28.58,9.51,42.84a90.51,90.51,0,0,0,2.79,10.85c.91,2.54,1.84,1.56,2.88,1.5,1.74-.09,1.81-.64,1.53-2.71-2.45-17.91-8.64-34.91-12.52-52.46C645.63,257.57,644.05,257,641.63,257.32Zm49.8,153.92c.37,6.72,4.05,12.32,5.47,18.71,2,8.84,5.08,17.44,7,26.35.26,1.2,0,3.91,2.52,3,2-.72,4.26-1.63,3.14-5-4.41-13.36-8.59-26.79-12.74-40.23C695.84,410.94,694.15,410.17,691.43,411.24ZM689,297.52c-.3-1.11-.51-1.92-.73-2.71-3.22-11.47-6.33-23-10.5-34.14-.42-1.1.09-3.94-2.87-2.7-2.22.93-2.19,2.41-1.52,4.44,2.29,6.94,4.5,13.92,6.57,20.93,1.44,4.9,2.75,9.86,3.83,14.86.4,1.83.21,4.16,2.65,3.8S688.23,298.92,689,297.52Zm21.46,127.09,1.29-.4c-1.66-4.17-3.24-8.37-5-12.48-.63-1.42-2.19-1.46-3.51-.9s-.57,1.73-.33,2.57q5.53,18.77,11.14,37.52c.28.95.41,2.05,1.75,2.05s1.9-.92,2.5-2c1.44-2.66-.19-4.87-1-7.12C715.12,437.39,714.74,430.43,710.46,424.61ZM693.94,293.93c4.86-1.49,4.37-4.28,3.19-7.66a67.45,67.45,0,0,1-3.37-12.39c-.48-3.38-4.36-4.9-3.53-9.28.55-2.9-2.15-6.43-3.44-9.65-.52-1.3-1.26-2.46-2.95-1.86s-1.59,1.69-1.14,3.19C686.47,268.72,690.15,281.19,693.94,293.93Zm-9.62,175.41c2.13-2.72,4.35-3.94,3.87-6.71-1.84-10.79-4.91-21.29-7.62-31.88-.59-2.32-2.35-2.09-4-1.8-2.8.5-1,2.43-.7,3.47,1.17,4.24,3,8.48,3.82,12.6C681.24,452.7,682.34,460.48,684.32,469.34ZM178.43,369.2c3.4-3.54,6.44-6.72,9.5-9.88,5.6-5.79,5.91-8.68,1.79-15.63C180.41,349.34,177.1,357.83,178.43,369.2Zm449.46,98.89c-.74-9.36-1.39-18.31-2.21-27.24-.12-1.33,1-3.77-1.86-3.72s-3.48,1.8-3.31,4.39c.59,8.79,1.19,17.59,1.46,26.39.1,3.08,1.85,3.69,4.08,3.74C629.27,471.72,627.53,469.11,627.89,468.09Zm35.53-159.87c1-2.32,5-2,4.09-5.63-2.53-9.76-4.92-19.55-7.24-29.37-.53-2.25-1.82-2.49-3.64-2.14-2.39.47-1.7,2.11-1.12,3.45,1.75,4,.71,9.05,4.77,12.1C658.5,294.14,663,300.78,663.42,308.22ZM642.18,435.41c1,10.79,1.87,21.36,3.74,31.83.31,1.76.07,3.88,2.94,3.52,3.31-.41,1.57-2.68,1.46-4.18-.31-4.13-.91-8.25-1.2-12.39-.22-3.12-2.63-5.6-1.42-9.37.9-2.84-.63-6.5-1.24-9.76-.2-1.1.12-2.87-2.11-2.55C642.36,432.78,641.9,433.89,642.18,435.41ZM605.69,290.08l.17,0a62.66,62.66,0,0,0-.62-6.44c-.23-1.15.89-3.43-1.71-3.2-2.13.18-3.57,1-3.34,3.81.75,8.9,1.3,17.81,1.78,26.73.13,2.54,1.53,3,3.56,3.05,2.88.09,2.11-2,2-3.47C607,303.72,606.31,296.9,605.69,290.08Zm80.13,139.54q4,15.86,8,31.72c.47,1.89,1.69,1.64,3.07,1.29,1.84-.47,2.16-1.36,1.64-3.26-2.67-9.65-5.13-19.36-7.69-29a5.82,5.82,0,0,0-1-2.24c-.6-.73-1.28-1.56-2.51-1.17A2.12,2.12,0,0,0,685.82,429.62Zm-18.48-160.4c-2.1.41-2.13,1.74-1.62,3.66q3.62,13.74,7,27.53c.48,2,1.17,2.93,3.35,2.36,2-.51,2.21-1.67,1.74-3.36-2.55-9.24-5.1-18.48-7.59-27.73A2.84,2.84,0,0,0,667.34,269.22Zm68.38,216.93c2-2,1.8-3.69-.6-5.64a213.73,213.73,0,0,0-23.83-16.34c-1.21-.74-2.76-2.25-4-.84s.56,3,1.27,4.37c.42.79,1.52,1.24,2.34,1.8Zm-48.23-182c-.76.49-2,.85-2.24,1.56-.59,1.71.84,2.69,2.07,3.53,7.94,5.44,15.87,10.89,23.91,16.19,1,.67,2.13,3.23,3.94.63,1.55-2.23.09-3.17-1.43-4.36a238.12,238.12,0,0,0-23.9-16.19C689.14,305,688.41,304.63,687.49,304.1ZM519.91,290.28c.06,5.9,2,7.09,7.38,6,5-1,6.75-3.11,5.16-8-.45-1.38-.15-3-.45-4.44a4.59,4.59,0,0,0-4.48-3.81C526.07,279.93,519.89,288.65,519.91,290.28Zm137.78,155c-.61-3.93-1.19-7.87-1.84-11.8-.2-1.24-.07-2.92-2.12-2.59s-1.46,1.77-1.28,3.09c1.59,11.67,3.13,23.34,4.74,35,.24,1.72.16,3.9,3.09,3.29s1.34-2.55,1.16-3.91C660.47,460.62,659.33,452.91,657.69,445.28ZM627.9,290l.3,0c-.6-3.78-1.1-7.58-1.85-11.33-.25-1.24.42-3.48-1.94-3.34s-2.55,2-2.39,4c.68,8.47,1.37,16.92,2.76,25.31.31,1.88.27,3.61,3.09,3.29,3.14-.35,2.14-2.47,2-4.07C629.29,299.19,628.56,294.58,627.9,290Zm-31.81,21.72c-.41-8.36-.74-16.6-1.27-24.83-.08-1.29,1.2-3.86-1.74-3.63-2.2.16-3.84,1.06-3.62,4.11a166.34,166.34,0,0,1,.42,18.41C589.72,310.24,591.91,311.53,596.09,311.69Zm38.89,160c2.39-.63,5.23.34,4.68-3.7-1.39-10.36-2.47-20.75-3.7-31.13-.13-1,.26-2.68-1.54-2.51-1.25.12-2.77.47-2.59,2.36.68,7.38.39,15,2.43,22A29.64,29.64,0,0,1,635,471.68Zm75.44,26.65c-3.34,3-6.16,5.91-11.14,4.76,1.88,1.42,4,.4,5,2.1-3.72,3.32-4.39,3.14-10.8-2.85,2.5,10.5,3.82,11.77,10.94,10.52C709.65,511.94,711.76,507.27,710.42,498.33Zm-94-29.21c-.46-4.23-1.15-8-1.18-11.79,0-2.05-1.56-2.19-2.4-3.19,4.39-2.84,1-6.95,1.6-10.41.2-1.2.93-3.66-1.86-3.7-2.59,0-2.75,1.72-2.7,3.74.14,6.46.4,12.93.22,19.39C610,467.52,612,469.12,616.44,469.12Zm-5.66,37.61c1.56.15,1.81-1.17,2.35-2.13,4.83-8.52,9.67-17,14.42-25.61.43-.77,2-1.87.28-2.77a2.28,2.28,0,0,0-3.12.7A296.46,296.46,0,0,0,609,504.07C608,506.1,609.63,506.21,610.78,506.73Zm127.88-61.39c-.24-4.86-4.33-5.29-7.21-6.56s-4.43-2.29-4.78-5.75c-.43-4.25-2.51-7.71-8.26-5.56,1.59,5,3.1,10.11,4.86,15.1.24.69,1.41,3.26,2.64.89,1.45-2.81,3-1.33,4.66-.78ZM600.79,500.4c1.33-.17,1.41-1.15,1.74-1.82a218,218,0,0,1,13-21.83c.55-.85,2.48-1.94.47-3.2-1.43-.9-2.73-.65-3.87.84a152.8,152.8,0,0,0-13.47,21.5C597.18,498.62,599.73,499.15,600.79,500.4Zm-10.92-152c1.1.32,1.42-.61,1.79-1.26q7.38-13,14.7-26c.48-.86,1.08-1.86-.17-2.53a2.05,2.05,0,0,0-3,.78c-5.36,8.58-10.65,17.21-15.16,26.29C587.09,347.53,588.63,347.86,589.87,348.36ZM718.66,315c.24-2.29,2-4.36-.67-6-6.34-3.93-12.75-7.76-19.06-11.74-2.08-1.32-3.3.2-4.21,1.28-1.47,1.73.75,2.15,1.63,2.7C703.64,305.78,711,310.25,718.66,315ZM603.73,464.32c0-6.6.08-12.37-.06-18.14,0-1.26,1.24-3.69-1.53-3.53-2,.12-4.31.4-4.26,3.6a27.65,27.65,0,0,1-.85,7.86C595.42,459.85,598.85,462,603.73,464.32Zm-7.92-148c-1.71-.83-3.09-2.45-4.81-.21a137.27,137.27,0,0,0-12.9,20.6c-1,1.92.3,3.33,1.72,4.12s1.76-1,2.23-1.85C586.27,331.33,590.82,323.84,595.81,316.36Zm17.57-20.06a9.79,9.79,0,0,0,2.76,8.53c.92,1-1.35,4.13,1.81,3.37,2.13-.51.83-2.87.67-4.36-.83-7.55-1.74-15.11-2.78-22.64-.18-1.3.76-3.77-2.1-3.52-2.46.21-2,2.11-1.93,3.76C612.13,286.41,612.09,291.42,613.38,296.3Zm126.9,177.08c1.68-3.12.71-4.81-1.62-6.21-5.67-3.41-11.47-6.66-16.83-10.5-3.14-2.25-4.71-1.51-6.62,1.37A232.35,232.35,0,0,1,740.28,473.38ZM177.07,622.68c9.22,3.67,13.38,4,17.9,1.15-3.36,0-6.18,0-9,0-.82,0-1.93-.06-2-1,0-.64.68-1.42,1.23-2,3.29-3.25,7.27-.8,11-1.48-6.57-1.09-12.35-4.78-19.26-5.83C182.44,616.73,178.42,619.58,177.07,622.68ZM574.35,332.25c3.86-5.86,7.53-11.38,11.12-17,.66-1,2.67-2,.36-3.57-1.78-1.19-2.76-.31-3.7,1-2.71,3.77-5.31,7.63-8.12,11.33C571.87,326.87,572,329.43,574.35,332.25ZM286.64,152.91V107.26C283.09,122.48,284.29,137.65,286.64,152.91ZM583.4,296.33c0-2.48.07-5,0-7.43,0-1,.71-2.67-1.15-2.64a5.71,5.71,0,0,0-3.63,1.26c-1.8,1.75-.34,15.35,1.41,17.41a2.72,2.72,0,0,0,3,1c1.1-.39.38-1.73.4-2.64C583.44,300.94,583.4,298.63,583.4,296.33Zm55,211.91c.24,4.59,1.93,7.67,6,9.11a10.18,10.18,0,0,0,10.68-2.24c2.22-2.12,1.31-5.37.53-8.05-4.54.65-2.93,7.3-7.83,7A11.1,11.1,0,0,1,638.41,508.24Zm56-274.43c.43,2.92.23,3.21,1.46,4.05,6.68,4.6,7.89,11.47,8.18,18.81a29.14,29.14,0,0,0,.65,3.92c.2,1.07-.06,2.64,1.67,2.45s1.33-1.51,1.31-2.71C707.51,249.25,704.21,239.73,694.41,233.81ZM618.54,353.67c.91,2.05,2.64,4.35,4.05,4,4.29-1.13,8.51-.48,12.75-.73,2-.12,2.92-2.16,2.67-4.16-.3-2.48-2.22-1.35-3.5-1.2C629.31,352.19,624.12,352.92,618.54,353.67ZM608.26,332c-2.9,6.42-5.5,12.13-8.07,17.85-.46,1-1.19,2.27.49,2.86,1.18.42,2.81,1.24,3.4-.62C606.06,345.84,612,340.55,608.26,332Zm110.37-30.95c.66-2.38.24-4.7-1.72-5.79-3.91-2.17-8.08-3.87-12.19-5.66-2-.87-2.72,1-3.34,2.13-.89,1.64.91,1.81,1.82,2.24C708.29,296.36,713.42,298.67,718.63,301.05Zm-125,189.66c4.3-6.28,8.34-12.13,12.27-18,.49-.74,2.33-1.41.7-2.78-1.45-1.23-2.25-.31-3.24.77-4.24,4.71-7.37,10.17-10.74,15.48C591.5,487.93,592.34,489.21,593.65,490.71ZM198,331.22h0a25.88,25.88,0,0,1,0-3.94c.52-3.31-2.5-3.13-4.1-3.88s-2.92,1.32-3.86,2.41c-1.64,1.94.77,2.86,1.8,3.7,1.82,1.5,2.83,3.05,2.49,5.49-.16,1.12-.88,3,1.33,2.92,1.45,0,2.27-1.25,2.33-2.74C198,333.86,198,332.54,198,331.22Zm407-72.37a4.5,4.5,0,0,0-1.24,1.06,29.54,29.54,0,0,0-3.63,18c.08.88.33,1.79,1.46,1.42,1.3-.42,3.28,0,3.4-2.17.09-1.49.55-3.41-.17-4.41-2.25-3.11-.46-5.7.45-8.46.41-1.26.79-2.54,1.2-3.8C606.76,259.45,606.31,259,605,258.85ZM741.72,460.48c.35-2.35.51-4.52-1.25-5.45-4.69-2.5-9.58-4.63-14.4-6.89-1.4-.65-2.28.18-2.83,1.27-.7,1.38.6,1.6,1.43,2Zm-29.37-48.66c4.83,3.76.6,14.81,12.19,14.23C720.68,420.4,720.53,413,712.35,411.82ZM515.82,256.64c1.65,3.11,2.46,5.73,5.77,6.42,5,1.05,7.91,3.76,7.25,9.32-.14,1.22-.05,2.75,1.86,2.87C532.23,262.85,531.11,261.37,515.82,256.64ZM673.19,411.75c-1.46.14-3.14-.11-2.35,2.4,1.24,4,2.27,8,3.39,11.94.55,1.92,2,2,3.55,1.61,2-.45,1.45-1.86,1.09-3.11-1-3.5-2-7-3.09-10.48C675.39,412.85,675,411.47,673.19,411.75ZM693.35,322c-.79,9.14,6.12,11.67,10,16.23.92,1.07,1.73.13,2.51-.45,1.35-1,.83-1.85-.1-2.81C701.9,330.92,698,326.86,693.35,322ZM628,492.92c-2.38,5.32-4.47,9.9-6.46,14.51-.47,1.08-1.65,2.47.34,3.29,1.74.71,3.09.48,3.93-1.58C627.75,504.28,630.61,499.63,628,492.92ZM540.63,267.21c.19,3.72.29,6.84.51,10,.16,2.31.5,4.61.69,6.92.14,1.6.61,2.9,2.33,1.49C547.62,282.71,545.6,269.93,540.63,267.21ZM715.15,481.68c-.56,8.18,5.79,11,9.74,15.29,1,1.09,1.72-.12,2.4-.72,1.1-1,.41-1.75-.31-2.48Zm-60.28-54.34c-.56-6-3.17-11.68-3.15-17.81,0-.73-.6-1.15-1.38-1-1.59.19-1.73,1.26-1.52,2.55.9,5.56,1.78,11.13,2.71,16.69.2,1.16.45,2.39,2.17,1.94C655,429.31,655.07,428.39,654.87,427.34ZM293.94,149.16c3.21-9-2.27-16-4.86-23.63C285.32,134.64,296.75,140.26,293.94,149.16ZM625.12,429.37H625a10.09,10.09,0,0,0,0-2.46c-.37-1.34,1.14-3.73-1.59-3.81s-3.66,1.59-3.35,4.23c.22,1.95.11,3.94.25,5.91.08,1.21-.27,2.91,1.9,2.62,1.5-.2,3-.48,3-2.55C625.1,432,625.12,430.68,625.12,429.37ZM594.4,275.68c-1-1.47,1.3-5.14-1.86-5.24-4.13-.15-3.14,3.69-3.21,6.38,0,1,0,2,0,3s-.08,2.52,1.73,2.3c1.45-.18,3.19-.17,3.45-2.12A26,26,0,0,0,594.4,275.68ZM269.75,181.62c1.81-9.18,1.7-18.62,3.44-27.81A55.64,55.64,0,0,0,269.75,181.62Zm398.33,78.12c6.72-2.27,5.69-8,7.53-12.06.45-1,1.22-2.43-.22-3s-2.32.79-2.78,2.08C671.19,250.76,669.81,254.78,668.08,259.74ZM641,421.42c.33,3.1.62,5.55.85,8,.12,1.32.43,2.23,2.1,1.85,1.32-.3,2-.83,1.77-2.33-.57-3.41-1.06-6.82-1.58-10.24-.13-.87-.37-1.63-1.45-1.59-1.25.05-1.63.92-1.68,2S641,421.07,641,421.42ZM615.78,267.55c6.11-3.21,5.78-8.67,7.27-13.15.35-1,.81-2.48-.86-2.81-1.48-.29-1.8,1.08-2.14,2.17C618.74,258,617.44,262.18,615.78,267.55ZM604.26,434.29c-.84-1,1.83-3.64-.93-4.09-2.51-.4-3.45,1.95-3.64,4.34-.11,1.32-.57,2.6-.65,3.92-.06,1-1,2.71.81,2.71,1.4,0,3.6.37,4-1.93A43.21,43.21,0,0,0,604.26,434.29Zm9.85-2h-.05a7.26,7.26,0,0,0,0-2c-.38-1.28,1.17-3.63-1.44-3.68s-3.14,1.82-2.89,4.15c.19,1.8,0,3.65.15,5.46.08.95-.5,2.72,1.55,2.25,1.17-.27,2.8-.25,2.72-2.22C614.06,434.93,614.11,433.61,614.11,432.28Zm37.4-172.92c.87,3.08,1.59,5.59,2.3,8.1.08.32.15.64.2,1,.3,1.85,1.67,1.72,3,1.62,1-.08,1.83-.34,1.93-1.67C659.24,264.65,656,260.31,651.51,259.36ZM691.7,253c2.09,5.28,3.71,9,5.09,12.88,1,2.92,3.38,2.15,5.38,2.05,1.11-.05,1.1-1.4.47-1.85C698.29,262.88,696.79,257.37,691.7,253ZM590.18,478.56c2.85-4.1,5.29-7.58,7.69-11.07.53-.77,1.42-1.53.34-2.56a1.22,1.22,0,0,0-2.07.1C593.23,468.82,588.57,471.79,590.18,478.56Zm97.46-59.69c-1.83-2.16.19-6.92-4.44-7.91-1.26-.27-2.57.53-1.85,2,1.41,2.81,0,7.11,4.16,8.4C686.5,421.64,688.39,421.46,687.64,418.87Zm-9.4-164.54c6-2.06,4.57-7.41,6.38-11,.41-.82,1-2.09-.15-2.64s-2.13.46-2.69,1.53C679.9,245.77,679.35,249.69,678.24,254.33Zm-26,297.07-14.92-4C641.19,552.64,646.35,553.18,652.23,551.4ZM729,536.31c3.36-3.49,6.51-6.28,8.14-11.11C729.45,529.14,727.61,531.62,729,536.31ZM686.67,249.64c4.73-3.34,5.41-8.49,5.8-13.76C688.05,239.36,688.13,244.84,686.67,249.64ZM573.74,281.12l1.79-.31q-1.35-8.24-2.69-16.46c-.15-.88-.49-1.62-1.58-1.42a1.1,1.1,0,0,0-.9,1.48Q572,272.77,573.74,281.12Zm91-33.13a3.52,3.52,0,0,1-.34.89c-1.64,2.68-3.32,5.34-5,8-.48.79-1.42,1.62-.12,2.46,1.12.72,2,.58,2.95-.56,2.14-2.54,2.06-6.17,4.47-8.61C667.41,249.5,666.76,248.3,664.75,248Zm-31,165.6-1.68,0c-.16,4-.41,8-.42,12.06,0,1-.72,3,1.71,2.62,1.94-.3,1.62-1.75,1.5-3C634.56,421.33,634.17,417.46,633.8,413.59Zm-61.7-96.22c2-3,3.81-5.74,5.64-8.4.6-.86,1.15-1.5.1-2.49s-1.83-.61-2.84.28C571.79,309.61,571.77,313.21,572.1,317.37ZM180.91,492.85c-.75,2.08.34,3.2,2.53,3a2.72,2.72,0,0,0,2.44-3.62c-.3-1,.21-3.41-2.31-2.73C182,489.9,179.77,489.93,180.91,492.85ZM460.26,265.1c-2.58,6.76-4.93,13.77-3.73,21.34Q458.41,275.77,460.26,265.1Zm123.86,10-.87-.09a42.8,42.8,0,0,1-3.08,6.52c-.59.87-1.87,1.34-1.57,2.68.26,1.1,1.23.87,2,.71,1.44-.29,3-.5,3.15-2.47C583.91,280.06,584,277.6,584.12,275.15Zm73.78-26.24c-5.62-1.49-5.35,3.56-7.38,5.7-.56.59-1,1.45,0,2.09a1.76,1.76,0,0,0,2.6-.5C654.64,253.92,656.14,251.59,657.9,248.91Zm-58.79,9.78c-5.21.15-4.84,4.64-6.9,6.79-.49.52-1.57,1.67-.1,2.39a1.83,1.83,0,0,0,2.51-1C596,264.35,597.42,261.79,599.11,258.69ZM116.88,542l-1-1.06-15.73,14.2.93,1ZM600,552a23.31,23.31,0,0,0,8.61,13.33Zm25.19-281c-.93-1.3.94-4.4-1.79-4.9-1.66-.31-2.67,1.82-2,3.6.58,1.54-1.12,4.41,2.22,4.45C625.45,274.13,625.58,272.78,625.17,271ZM396.06,485.09l.33-1.18-16-4.33C385,483.42,390.48,484.47,396.06,485.09Zm-156.3-267c-2.2-3.75-2.07-8.13-3.06-12.73C233.39,212.69,233.53,213.27,239.76,218.11Zm49.91-48.34c-3.84,3.45-5,7.37-5.19,11.73C286.18,177.83,291.2,175.67,289.67,169.77Zm295.26,96.94c1.32-.1,5.55-7.09,4.78-8.07a1.46,1.46,0,0,0-2.5.08,66.71,66.71,0,0,0-3.53,6.49C583.16,266.28,584.06,266.58,584.93,266.71Zm42.37-15.93a21.43,21.43,0,0,0-2.61,10.55C630.2,258.69,627.62,254.43,627.3,250.78ZM743.65,469.39c-.74,2.75-1.41,4.82-.77,7.27.58,2.22.4,4.63.55,6.91C745.4,479.06,744.19,474.51,743.65,469.39ZM345.71,457.24c-3.38-3.94-7.26-4.9-13.16-3.42C337.1,455.32,341.7,454.94,345.71,457.24Zm373.47,82.18c3.68.59,5.61-1.21,7.45-3,.2-.2-.32-1.66-.54-1.66-2.48-.08-3.89,1.95-5.75,3.11C720,538,719.8,538.54,719.18,539.42ZM845.36,340.09c1.66-5.73,2.79-11.62,5.08-17.17C847,328.13,845.59,334,845.36,340.09Zm-278.59-76c-1,5.59.49,10.62,3.19,15.35Q568.37,271.78,566.77,264.1ZM209.57,613.22c-4.81,1.17-9.54,2.21-15.74,3.18C200.56,617.61,205.29,616.24,209.57,613.22ZM671.86,410.69c.53-.74,2.75.19,2.19-2.15-.39-1.61-1.11-2.66-3-2.46-1.22.12-2.45.12-2.08,1.84C669.27,409.34,669.48,411,671.86,410.69ZM223.78,341.23c-.09,2.91.48,4.62,3.18,4.51,1.24-.05,2.83-.92,2.56-1.84C228.66,340.92,225.59,343.05,223.78,341.23ZM612.9,264.11c.79-2.73,1.58-5.45,2.56-8.8C609.71,257.32,611.67,260.82,612.9,264.11ZM427,501c3.81,3.16,7.47,3.89,11.49,2.58Zm40.68,11.12c-3.34,1.51-6.89,1.09-10.31,1.59C461.24,516.15,464.65,515.06,467.71,512.12Zm-106-42.07-.56,1.12,11.5,6,.53-1.06Z" transform="translate(-1 -2.14)"/>
  <path d="M353,996c-9.06-1.62-16.42-5.77-19.88-14.69-2.58-6.65-.43-13.53.46-20.21,1.31-9.79,5.41-18.77,9.27-27.78a16.8,16.8,0,0,0,1.42-9.21c-1.08-7.74.71-14.52,7.13-19.6a5.53,5.53,0,0,0,1.87-2.83c12-39.13,22.54-78.52,27-119.4,2.54-23.3,8.14-46.15,13.88-68.89,1.63-6.44,3-12.95,4.59-19.41,1-4.11.77-7.6-3.95-9.22a2.56,2.56,0,0,1-.83-.55c-3.85-3.54-6.87-5.25-12.34-1-6.38,5-20.65-.73-24.26-8.9-4.82-10.93-9.9-21.8-12.48-33.58a63.77,63.77,0,0,0-5.46-14.35c-1.93,3.82-4.77,4.87-8.73,4.74-4.95-.15-6.91-.68-10.24-4.88-1.23-1.54-2.45-3.4-4.83-1.51a1.44,1.44,0,0,1-2.21-.16c-1.76-3.23-4.51-2-7.05-1.71-1.51.16-3.09.4-4-1.2s.67-2.41,1.08-3.59c.11-.3.47-.54.53-.84.38-2.1,4.13-2.81,2.38-5.78s-4.46-1.2-6.77-1.35c-1.25-.08-2.79.62-3.5-1-.59-1.38.06-2.58.88-3.69a20.42,20.42,0,0,0,1.67-2.49c.56-1.06,2.26-1.74,1.24-3.4-.87-1.42-2.09-1.74-3.75-1.85-2.3-.16-5.63,2.38-6.66-1.74-.55-2.19,4.58-7.61,7.35-7.7a6.78,6.78,0,0,0,6.73-4.74c.55-1.46.36-3.2.49-4.63-1.05-.94-1.78-.33-2.46,0-4.93,2.37-5.55,2.13-5.38-3.47.06-2-1.44-3.15-1.38-5,.17-5,5.24-9.14,10.35-8.3,3.94.66,4.05.65,3.65-3.86-.58-6.6-.8-13.28-3-19.63-.67-1.94-.66-3.59,1-4.93a4.57,4.57,0,0,1,5.17-.42c1.76.89,3,2.52,2.52,4.46-.68,2.83-.31,5.61-.43,8.87,2.23-.17,4.56-1.48,6.39.67,1.69,2,1.76,4.15,1.34,6.55a22.18,22.18,0,0,0,0,4c0,2.23.51,2.9,3.12,4.19,4.54,2.23,8.08-.3,12,.13,1.88.21,2.55-1.28,3.56-2.3,19.53-19.54,42.75-28,70.29-23.3A38.33,38.33,0,0,1,422,539.73c-2.46-8.93-4.63-16.8-7.13-25.89,3.21,4.28,5.66,7.55,8.32,11.08-2.73-1-3.95-.82-3.11,2.81,1.68,7.26,5.82,13.71,6.6,21.24.18,1.78,2.07,2.11,3.35,2.66,14.44,6.13,29.74,8.42,44.26,2.67,9.3-3.68,19.26-9.34,20.76-21.8.3-2.49,1.42-4.9,2.52-8.54.54,4.52-3.21,8.46,1.86,11.29-.76-3.43-.46-5.27,3.52-3.33,1.89.93,3.7,2.49,6.48,1.7,1.76-.51,2.48,1.55,2.15,3.54a43.17,43.17,0,0,0-.56,6.62c0,4.83,2.9,7.26,7.17,8.66,6.64,2.18,12.94,5.45,19.92,6.6,2.14.35,3,.91,2.16,3.19s-1.65,3.15-3.94,1.67a21.86,21.86,0,0,0-4.45-2.11c-.9-.32-2.16-1.74-2.87.1-.55,1.41.67,2.18,1.77,2.55a25.84,25.84,0,0,0,5.73,1.48c2.31.23,2.89,1.18,2.15,3.24s-1.79,2.53-4.1,1.51c-6-2.68-12.25-4.9-18.38-7.35a5,5,0,0,0-5.33.32,90.08,90.08,0,0,0,23.9,9.24c2.28.55,3.16.88,2.43,3.43-.62,2.15-.92,3.3-3.45,1.8-6-3.55-12.72-5.62-19.28-8-2.57-.91-5.22-2.29-6.16,2.59-.86,4.52-5.54,4.94-8.88,4-4.35-1.28-6.11,1.64-9,3.25-5.41,3-6.33,8.37-7.95,13.29-4.65,14-12.11,26.8-17.91,40.32-7,16.32-10,33.39-10.45,51-.65,25.14-.93,50.26-9.85,74.36-5.67,15.3-12.89,29.87-19.92,44.54-9,18.91-17.41,38.08-22.07,58.64a55.59,55.59,0,0,0-1.1,18.85,95.47,95.47,0,0,1-1.31,31.78c-1.83,8.2-6.64,15.39-10.17,23a34.82,34.82,0,0,0-3.15,17.21c.16,2.53-2.07,4.13-2.54,6.58a88.58,88.58,0,0,1-6.05,20c-3.63,8-8.59,14.63-17.89,16.53Zm46.29-455.25a9.41,9.41,0,0,0-1.58,1.18,106.9,106.9,0,0,0-10.66,14.37c-.93,1.53.1,2,1.09,2.65,5.07,3.15,10.22,6.18,15.18,9.48,2.24,1.49,3.5.22,4.62-1.17,2.38-2.92,6.73-4.21,7.29-8.61,0-.36-.53-.81-.85-1.19-3.82-4.59-7.61-9.22-11.51-13.75A28.48,28.48,0,0,0,399.29,540.75Zm56.35,34.54a10.83,10.83,0,0,1-1.09-1c-2.78-3.09-5.55-6.19-8.28-9.32-.77-.89-1.24-1.07-2.4-.29-9.42,6.31-10.27,10.39-3.79,19.12.3.4.57.82.84,1.24.38.61,1.06,1.18,1.61.79,4.33-3.08,8.93-5.8,12.7-9.61A3.56,3.56,0,0,0,455.64,575.29Zm-92.77-26.4c5,1.8,9.14,3.25,13.25,4.83,1.71.66,2.9.29,3.74-1.25a67.2,67.2,0,0,1,9.46-13A80.27,80.27,0,0,0,362.87,548.89Zm4.3,27.75c2.53-5.2,4.67-9.49,6.68-13.83.43-.93,2.18-2.17-.23-3.08-4.7-1.77-9.23-4.1-14.82-4.54C361.6,562.38,364.23,569.12,367.17,576.64Zm106.39,5.71,4.64-18.91c-2.77,2.89-4.57,4.8-6.39,6.68C465.7,576.46,465.7,576.46,473.56,582.35Zm-96.8-6.64c3.52-1.26,6.24-2.29,9-3.21s5.4-1.69,8.49-2.65c-10.64-6.75-10.64-6.75-16.24,3.46C377.72,573.83,377.46,574.37,376.76,575.71Zm32.69-35.28c3.91,4.67,7.84,8,10.55,12.25.39.6,1.12,1.21,1.51.65a24,24,0,0,0,2.92-5.1c.62-1.6-.37-2.75-1.86-3.54A44.55,44.55,0,0,0,409.45,540.43Zm46.05,22.89c5.65,8.87,7.69,8.73,12.48,0Zm-24.95,5.12,8-7.22c-4.57-.74-7.66-3-11.6-4.4ZM450.13,588c5.47-.53,10-.53,14.46-2.22C459.71,580.46,459.71,580.46,450.13,588Zm61.36-32.16c4.8,3.92,9.81,4.72,14.17,6.85.82.41,2,1,2.38-.46a1.91,1.91,0,0,0-1.33-2.37C522.08,558.42,517.81,555.61,511.49,555.88ZM416,570.34l8.48,1.83C420.81,565.52,420.81,565.52,416,570.34Z" transform="translate(-1 -2.14)"/>
  <path d="M431.58,92.57c3.31,2.49,3.26,7.62,8.14,8.87l-.89,1-3.56-1.79c-.95,1.46.06,3-.33,4.37-1.34,4.68.52,7.13,5.16,8,.43.08,4.81-.41,1.59,2.8-.84.84,1,1.08,1.51,1,9.79-1.66,19.4,1.12,29.11,1.11a3.9,3.9,0,0,0,3.22-1.6c-3-.81-6.56-.12-8.35-3.31,4.13.42,8.26.85,11.75,3.48a4.06,4.06,0,0,0,4.23.54c8.79-3.71,8.79-3.72,16.91.7.87-5.59-.61-10.91-1.1-16.23-1.22-13.23-2.63-26.46-4.38-39.63-.57-4.23,1.83-5,4.64-5.5,3.08-.59,4.41,1,4.74,4.17,1.93,18.69,4,37.36,6.12,56.57,5.46-4.15,10.47-3.48,15.43.59,1.45,1.19,3.3.49,5-.68,6.33-4.29,10.45-4.19,16.8.34,2,1.44,3.48,2,5.62.09,4.75-4.38,10.39-3.87,15.95-2,3.22,1.06,5.5,4.25,9.34,4.18.91,0,1.59,1.1,1.48,2.28a1.87,1.87,0,0,1-2,1.85q-3,.17-6,.12c-18.81-.28-37.63-.47-56.44-1-4-.11-4.84,1.09-4.28,4.79,1.08,7.23,1.91,14.51,2.62,21.79.25,2.61.95,3.18,3.32,2,3.67-1.87,7.3-3.48,10.55-6.33a19,19,0,0,1,18.6-4.14c4.41,1.33,5.28,4.83,1.81,7.81-1.63,1.4-1.4,3.5-3,4.68,2.15.72,3.59-1.48,6.65-1.25-4.29,2.75-8,4.85-11.43,7.4-4.13,3.1-8.61-.25-13,1.71a5.93,5.93,0,0,1,.57-1.29c1.43-1.28,5.5-.49,4.27-3.44-.86-2.07-3.58.3-5,1.18-11.76,7.13-25.73,7.16-38.22,12-4.28,1.66-8,4.32-13,6.39,1.63-3.87,4.06-6.12,6.07-8.81-3-1.53-6.32-1.56-8.88-3.46,1.11,0,2.36.38,3-1,1.13.66,2.23,1.38,3.39,2,4.3,2.24,7.08,1.23,8.63-3.08,1.68-4.66,3.31-9.34,5.12-13.95,1.12-2.86,2.46-2.63,3.8,0,1.79,3.47,4.11,6.7,4.32,10.87,2-.64,3.92-.94,3.63-3.54q-1.67-14.58-3.25-29.17c-.26-2.43-1.33-3.21-3.84-3.23-11.3-.1-22.59-.5-33.88-.67-7.58-.12-15.16,0-23.47,0,2.52,4.35,4.7,8.14,6.89,11.93,3.09,8.49,8.46,15.52,14.23,22.31,3.14,3.7,5.09,9.16,11.62,7.77-4.29,2.78-8.26,1.89-12.73-.16-5.09-2.33-10.56-4.12-16.35-4.05-6,.06-9.35,3.16-10.37,9.1s-.67,11.93-1.33,17.87c-.35-8.92-1-17.87,2-26.52a133.34,133.34,0,0,0-23-1.66c-1.5.91,3.12,1.53-.17,3.42-1.44.83-.25,6.22-.59,9.54.42-8.1-5.27-15.9-.87-24.19-7,17.88-9.07,35.64,1.82,53.1-2.58.55-3.2-3.16-5.13-1.21-1.5,1.53.4,3,.78,4.42.69,2.57,1.71,5.29,5.09,6.38.25-2.74-1.36-5.13.07-7.93,4.71,11.12,12.11,20.25,18.07,30.5-3.93-3.52-7.69-7.26-11.83-10.52-8.63-6.79-12.14-16.64-16.52-26.11-4.53-9.78-.94-19.07.46-28.58.22-1.54,2.63-3.22-.08-5.15-2.91-2.06-3,1.93-4.82,1.79a58.6,58.6,0,0,0,9.38-20.69c1.67-7.63,2.63-15.44,4.73-22.94,2.39-8.5,3.49-16.13-5.87-21.14-.08,0,0-.32,0-.48,8.75,3.66,16.13,9.47,24.19,15.79l-4.77-8.83,3.8,2.33c-5.58-15.11-10.36-29.8-23.13-40,6.58,2.74,9.88,8.65,14.25,13.49,1.12,1.24,2,4.43,4.86,1.67.6-.58,1.83,0,1.17,1.54-2,4.54-.18,8.73,1.51,12.92V89c1.2,1.5,1.88,3.27,3.93,3.69-2.13,5.16,1.07,10,.75,15C433.07,102.62,433.62,97.51,431.58,92.57Zm-8.39,20.76c4.07,5.54,7.38,10.29,10.94,14.85,3.78,4.84,5.18,10.08,2.51,17.32C443,137.08,435.72,120.75,423.19,113.33ZM490.08,164c7.36-1.69,11.49-7.66,5.26-13.93C492.66,154.21,490.26,158.4,490.08,164Zm84-41.37c-7.31-7.52-13.35-8.59-19.54-3.38h13.83v.65l-4.08.74.1.38,5.22.37-.06.27-6.34.45,0,.52Zm-41.3-4.74c4.07.43,8.13,1.44,13.24.58C541.05,114.84,537,115.49,532.8,117.87Z" transform="translate(-1 -2.14)"/>
  <path d="M325,168.05c7.28,3.78,14,8.56,21.73,11.58,6,2.37,12.06,4.62,18.27,6.41,3.5,1,6.39.28,9.35-1.73,7.14-4.85,13.36-10.78,19.88-16.37-2.94,7.45-2.59,15.27-2.56,23.05.07,14.26.21,28.52.33,42.78,0,2.65.07,5.28-2.68,6.81,3.56-18.51,1-37.12,1.18-55.79-10.56,25.83-19.86,52-30.49,77.71,3,.08,6,1.69,7.67-2a4.07,4.07,0,0,1,1.75.36c2.67,1.18,4.11-.43,5.22-2.39,1.21-2.14,2.36-5,4.81-5.07,3.46-.08,4.95-2.08,6.57-4.37-.19,1.49.34,2.36,1.9,1.69,1.89-.82,3.27-2.15,3.14-4.49-.32-6.31,4.1-9.48,8.48-12.61a8.59,8.59,0,0,1,2.8-.79c-1.3,1.56-4.39,2.12-3.59,4.8.65,2.18.81,2.43-1.57,1.74s-3.13,1.46-4,3c-.35.65-.51,2-.15,2.31,1.32,1.09,3,.41,4.13-.29,2.94-1.79,6.11-.3,10-1.93-2.63,3.63-5.45,6.59-1.26,9.22,2.82,1.76,4.83-1.67,6-3,2.86-3.16-2.32-2.84-3.18-4.66,1.82-.46,3.46-.75,5-1.31a3.25,3.25,0,0,0,2.08-3.6c-.1-1.75-.51-3.35-2.39-3.92-3.68-1.11-7.21-3.08-11.29-2.29,4.78-1.89,9.54-1.73,13.17,2s3,8.72-.79,14.12-8.85,7.8-15.42,6.82-7.22-.25-7.34,6A98.25,98.25,0,0,0,393.59,282L390,279.56c.24-.23.64-.43.69-.7,1.16-6.82.24-13.67.31-20.52a1.27,1.27,0,0,0-2.15-1c-6.2,5.65-15.78,4.29-21.87,10.73l4.63,2.85c-.65,1.36-2.2.18-3.35,1.35,3.54,3.36,5.34,7.55,7.08,12.15,3,8,11,12.83,15.61,20a11.19,11.19,0,0,1-2.89-.66c-7-3.74-11.05-10.89-17.59-15.43-4.35-3-6.87-8.66-9.33-13.71-.82-1.67-1.82-3.25-3.23-5.75-1.88,5-3.59,8.74-4.73,12.67-3.39,11.75-7.84,23.21-9.46,35.65-1.34-1.53-.59-3.85-2.52-4.79-1.35,2.77,1,5.48-.38,8.23-2.89-7.62-1.22-15.68-2-23.51,3,2.43.33,6,2.2,9.88l7.47-29.41-.93-.3q-1.86,5.42-3.73,10.83c-1.21-5.37,1.34-9.81,3.26-15.12-7.2,6.4-12.8,12.57-8.54,22.37-1.67-1.34-1.88-3.39-2.17-5.21-.67-4.18-2.59-3.67-5.13-1.71,3.15-2,3.56-5.16,3.67-8.46l2.06-2.86c2-3,5.43-4.19,7.86-6.63,1.56-1.56,2.33-2.83.52-5.28-1.92-2.6-5-3.07-7-5.21-4.07-4.33-8.93-3.08-13.39-1.12-8.73,3.85-14.94.86-16.84-8.53-1.44-7.08,6.62-16,13.14-14.52-3.14,1.8-7.91,2.75-4.32,8.13-.61-.16-1.25-.28-1.85-.5-1.57-.58-3.44-2.35-4.23.71-.46,1.76-1.94,4.1,0,5.4,2.1,1.4,4-.36,5.47-2,1-1.1.65-2.48.46-3.78a7.69,7.69,0,0,0,1.75.91c2.06.47,4.06,1.44,3.38,3.68-.2.67-1.54,4.74-5,2.06-.86-.66-5.11-.22-5.36,3.33-.22,3.22,3.5,5.31,4.47,4.65,3-2,6.53-.68,9.2-2.46,4.06-2.7,3.66-7.19,4.23-11.34.63-4.59-1.18-4.9-4.9-2.79,1-2.89,1.52-5.47-2.16-6.36,5.71-.68,7.49,4,10.07,8.49,1.28-6.33-.46-11.86,1.52-17.06l-.11-.13c-.1,6.33,0,12.66-.37,19-.24,4.44,3,8.8,5.4,8.89,5.28.19,8.4,2.55,11.62,5.9,2,2.07,3.23,2.2,4.84-1.1,2.27-4.65-.05-8.05-1.7-11.7-7.23-16-13.34-32.3-16.21-49.65A26.7,26.7,0,0,0,329,181.94c-2.57-2.33-4.77-5.07-7.13-7.63l.27-1.21,3.8,2.05c1.87-.44,2.68.35,2.91,2.22.22,1.72.86,3.3,2.94,3.88.73-4-.08-7-3.51-9.16-1.4-.89-2.2-2.73-3.26-4.14ZM341,185.92c-3,5.87,2.17,8.27,5,11.65a5.59,5.59,0,0,0,2,4.91c2.49,4.47,4.94,9,7.49,13.42,1.07,1.87,2.37,3.46,4.31.74l4.13,6.73c6.61-14.78,12.94-29,19.28-43.11-8.79,9.91-18.87,8.57-29.49,3.71-5.33-2.44-10.78-4.6-17-7.24l4.16,9.29ZM400.16,245c-2.23,1-6.07,1.05-6.57,4.41-.4,2.71,2.57,4.36,5,4.51,4.14.25,3.39-3.66,4.15-6.09C403.25,246.21,402.68,244.88,400.16,245Zm-55.83-42.54L357.2,227.1C355.4,217.61,350.36,209.78,344.33,202.47Zm31.3,86.12c-3.79-5.53-7.2-11.37-12.91-17.13C365.1,279.72,369,285.18,375.63,288.59Z" transform="translate(-1 -2.14)"/>
  <path d="M287.4,48.13c-3.72,9-7.28,18-9,27.59-1.15,6.42-3.51,12.73-1.31,19.38-1.64-.12-1.91-2.15-3.48-2.75a37.79,37.79,0,0,1-.91,4c-.52,1.52-1.57,2.64-3.33,2.44s-3.22-1.49-2.91-2.9c1.1-5-2.3-4.84-5.92-5.47,6.42,1.2,8-1.54,7.91-7.12-.07-4.65-3.21-3.13-5.61-3.75,5.89-.92,5.92-.92,6,4.55a67.19,67.19,0,0,0,.84,12.37c1.15-6.67,4.87-13,2.39-20.07a10.35,10.35,0,0,1,.53-7.24c2.07-5,.7-11.26,6.74-14.91,1.8-1.09,2.14-5.65,3.38-8.55,3.49-8.23,9.68-14.61,14.45-21.87a34.88,34.88,0,0,1,10.57-10.53c11.53-7.47,24.37-10.86,38-11.17-8.63,2.59-18.6,1.14-26.09,8.94,16.63-.06,32.54-3.77,48.77-1.45,12.27,1.75,22.15,7.28,31.63,14.83,5.56,4.42,8.25,10.1,11,16.09-6-7.72-13.89-13.56-20.75-20.42-5.71-5.71-13.77-8-21.73-9.08-21-3-41.06.08-59.35,11.33-6.06,3.73-11.51,8.38-15.39,14.55-4.31,4-7.5,8.75-8.4,12.82Z" transform="translate(-1 -2.14)"/>
  <path d="M434.84,79.47c-3.3-6.09-8.16-11.22-10.9-17.66,3.51.75,4.52,4,6.24,6.45,2.7,3.81,5.47,5.74,9.73,2.08,5.25-4.52,6.63.65,8.9,4.89,1-3.51-.27-5.74-.23-8.56a8.7,8.7,0,0,1,3,5.94c.24,3.06-1.9,4-4.6,3.17s-4.52-1.13-4.76,2.59c-.18,2.79-2.37.15-3.46,1,1.37,2.77,3.3,1.9,5.31.9,10.09-5,20.25-9.88,30.27-15,3.29-1.69,7.28-2.17,9.79-5.31l-.18.17c2.27-.26,4.79.7,6.67-1.42-2.28,2.37-1.36,6.73-5.1,8.18.67-1.2,1.33-2.4,2.62-4.7-4.23,2.11-7.5,3.51-10.53,5.32-2.28,1.36-1.22,2.22.81,2.46-9.1,5.48-18.86,9.71-28.29,14.57-4.71,2.44-12.21,0-15.1-4.92Z" transform="translate(-1 -2.14)"/>
  <path d="M526.67,243.76c2-5.34,6.55-7.71,11.37-9.77q.5,9,1,18.11c-2-.28-2.93-2-4.41-3C532,247.29,530.18,244.25,526.67,243.76Z" transform="translate(-1 -2.14)"/>
  <path d="M761.79,177.62c-4.37,1.31-7.34,2.55-11,1.3l5.41,7.89c-4.34-.27-8.14.13-9.11-5.08-.72-3.9-3.63-.15-5.46-1.37l10.63-12.52c.14.49.39.86.29,1.07-2.65,6-2.65,5.93,4.24,7.28C758.05,176.45,759.31,176.91,761.79,177.62Z" transform="translate(-1 -2.14)"/>
  <path d="M567.37,181.56c3.13-10.22,6.68-19.67,19.35-21.37-3.32,4-8.59,6.07-9.88,11C575.46,176.43,571.85,179.09,567.37,181.56Z" transform="translate(-1 -2.14)"/>
  <path d="M713.93,117.16c2.92-1.76,5.12-2.39,8-.41,3.91,2.73,8.77,3.94,12.32,7.29.95.89,3,2,1.68,3.45-.93,1-2.89,1.15-4.38-.41C726.81,122.12,720.3,120.32,713.93,117.16Z" transform="translate(-1 -2.14)"/>
  <path d="M237.08,77.55c-2.82-1.2-4.45-.63-4.21,2.79a7.48,7.48,0,0,1,0,2c-.89,4.5.52,6.79,5.48,6.07.87-.13,1.85.43,2.78.67-3.57.38-7.94-1.33-9,4.67-.36,2.08-3.93,1.62-4.4,0-2.25-7.6-8.54-5.18-13.55-6.48,1.44,0,2.87,0,4.3,0a25.55,25.55,0,0,1,5,.15c3.29.7,4.2-.75,3.88-3.68a8.32,8.32,0,0,1,0-1C227.38,74.56,229.6,73.39,237.08,77.55Zm-9.35,7.56h.38c0,1.82,0,3.64,0,5.46,0,1,.31,2.09,1.53,2.19s1.39-1.11,1.65-2c1-3.74.52-7.56.58-11.36,0-1.16-.5-1.88-1.74-1.9a1.79,1.79,0,0,0-2,1.7C227.91,81.15,227.85,83.13,227.73,85.11Z" transform="translate(-1 -2.14)"/>
  <path d="M240.89,89c10.18.47,11.8-1.84,8-11.51l8.18.83C255.15,80,256,82,255.54,84c-1-.82-.46-1.79-.5-2.6-.07-1.41-.66-2.11-2.11-2.19-1.72-.1-1.78,1-1.84,2.25-.19,3.66-.46,7.31-.62,11-.06,1.28-.34,3.07,1.44,3.2s1.76-1.63,2-2.93-.18-2.56,1.44-4.3c.73,3.81,1,7.08-1.84,8.79s-4.34-1-5.49-3.34C246.53,90.89,243.64,90,240.89,89Z" transform="translate(-1 -2.14)"/>
  <path d="M631.18,160c-1.6,4-2.85,7.7-2.48,12-2.68-.66-3.16-2.91-4.39-4.24s-4.17-2.62-3-5.12c1.06-2.29,3.82-2.29,6.09-2.59A31.56,31.56,0,0,1,631.18,160Z" transform="translate(-1 -2.14)"/>
  <path d="M470.48,189.4c-5.11,4.62-7.66,11.5-13.25,15.78C458.39,197.29,461.86,191.28,470.48,189.4Z" transform="translate(-1 -2.14)"/>
  <path d="M743.9,146.06c2.19-.13,4.22-2.7,5.1.27,1.62,5.42,6.71,9.85,5.12,16.25C749.69,157.85,748.46,151.42,743.9,146.06Z" transform="translate(-1 -2.14)"/>
  <path d="M422.26,59.07c-6-5.39-10.7-12-16.95-17.29,3.56-.14,5.19,2.45,7.31,4.25,1,.85,2,2.33,2.32-.4C419.8,48.79,419.38,54.82,422.26,59.07Z" transform="translate(-1 -2.14)"/>
  <path d="M466.46,65.77c1.09-2.26-.48-3.92-.11-6.43,2.22,2.24,2.88,4.45,2.09,6.63s-2.82,2.18-5,1.75c-3-.59-6.13-.59-8.92-2.15,2.17-2.39,6.19-1.51,8-4.6C464.52,61.89,463.55,65.44,466.46,65.77Z" transform="translate(-1 -2.14)"/>
  <path d="M433,218.49q1.85,20,3.68,39.94l-.95.09q-1.87-20-3.76-40Z" transform="translate(-1 -2.14)"/>
  <path d="M641.78,134c-4.92,3.92-6.6,11.34-13.58,13.06C631.68,141.64,635.22,136.29,641.78,134Z" transform="translate(-1 -2.14)"/>
  <path d="M681.58,112.6c5.49-7.91,11.59-6.26,17.88-4.85-2.21,3.48-5.22,2.67-8.23,2.35S685.34,110.33,681.58,112.6Z" transform="translate(-1 -2.14)"/>
  <path d="M434.84,79.47l.15.08-2,2L416.92,66.33,418.18,65C424.32,69.13,428.59,75.49,434.84,79.47Z" transform="translate(-1 -2.14)"/>
  <path d="M205.59,84.22c1,2.29-.74,6.14,2.14,6.16,3.18,0,2-3.82,2.26-6,.28-2.58.07-5.22.56-7.84.2,3.73.47,7.46.58,11.2,0,1.6.29,3.54-1.78,4.17A3.72,3.72,0,0,1,204.67,90a5.31,5.31,0,0,0-4.74-3.33C202.08,85.6,205.13,87.53,205.59,84.22Z" transform="translate(-1 -2.14)"/>
  <path d="M616.93,595.16c.46.05,1.19-.08,1.36.17,4.08,5.87,9.5,10.75,12.68,17.27C625.46,607.45,619.71,602.49,616.93,595.16Z" transform="translate(-1 -2.14)"/>
  <path d="M395.85,283.94c-2.59-.22-3.18,1.1-2.61,3.35.87,3.44.5,6.93.25,10.49-.12-8.31-.37-16.53-9.6-20.45,2,.77,4.32.84,6.12,2.23l3.58,2.43C394.76,282.16,395.32,283,395.85,283.94Z" transform="translate(-1 -2.14)"/>
  <path d="M484.09,59.89c-1.32.07-2.64.2-4,.18-1.62,0-3.46.3-4.14-1.81-.41-1.27.89-1.4,1.46-1.47,1.44-.19,2.88-3.4,4.47.11.81,1.77,2.18,1.42,2.22-.69,0-1.32,0-2.33,1.71-2.15q-1,3-1.94,6Z" transform="translate(-1 -2.14)"/>
  <path d="M669.7,111.84c-5.67,1.42-9.3,3-16.12,3.4C656.92,113.17,661.83,112.1,669.7,111.84Z" transform="translate(-1 -2.14)"/>
  <path d="M531.19,524.38q-4.83-11.68-9.65-23.37C526.51,508.05,528.69,516.28,531.19,524.38Z" transform="translate(-1 -2.14)"/>
  <path d="M435.51,215.85q4.26,10.71,8.52,21.43c.1.25-.1.62-.17.94C440.73,234.3,436.16,222.64,435.51,215.85Z" transform="translate(-1 -2.14)"/>
  <path d="M662.6,121.65c-2,4-3.24,8.45-8.6,10.63A22.45,22.45,0,0,1,662.6,121.65Z" transform="translate(-1 -2.14)"/>
  <path d="M305,526c5.08-3.87,11.11-5.23,17.39-5.93l-17.48,5.82Z" transform="translate(-1 -2.14)"/>
  <path d="M461.63,221.61c-5.27-.5-11.07-2.92-14.1,4.59,2.41-7.43,8.11-9,14.08-4.6Z" transform="translate(-1 -2.14)"/>
  <path d="M445.91,95.73c-4.09-2.35-6.84-6-9.48-9.77,2.4,0,3.17,2.12,4.42,3.49,2.74,3,5.48,5.8,11.07,4.17C449.46,95.47,447.1,93.56,445.91,95.73Z" transform="translate(-1 -2.14)"/>
  <path d="M446.62,55.74c-.09,3.48-4.18,3.8-3.55,7.45-1.44-1.66-1.43-3.81-3.79-4Z" transform="translate(-1 -2.14)"/>
  <path d="M550.29,546.52c5.36-.82,10.67-1.83,16-3C561.17,545.79,556,547.44,550.29,546.52Z" transform="translate(-1 -2.14)"/>
  <path d="M414.73,274.21v18.16h-.42v-18Z" transform="translate(-1 -2.14)"/>
  <path d="M326,175.15l-3.8-2.05L321,171.58c-.49-2.25.17-4.55-.89-6.83-3.86-8.33-5.83-17.25-7.4-26.24-.64-3.65-1.43-7.34-4-10-1.89-1.95-1.9-2.83,0-4.65,2.67-2.6,1.45-12.49-1.6-14.48a2.2,2.2,0,0,0-1.82-.19c-5.08,2.31-9,6.08-13,10.54-1.59-7.9-4-15.42-2.74-23.33,1.68-10.94,2.69-22,6.48-32.54l-.14.2c6.56-7.36,12.28-15.49,20.15-21.7-4.68,1.46-8,4.64-11.19,8-1.22,1.29-2.15,3-4.35,2.86,2.83-5,6.92-8.49,11.94-11.41,10-5.8,19.8-11.53,31.45-13.33a103.39,103.39,0,0,1,28.33-.24c3.78.46,3.82,2.37,2.93,5.4-4.82-1.86-9.9-3.52-15.42-3.1,8.29,2.77,14.87,8.23,21.9,13.11-11.6-5.85-23.27-11.15-37.59-10,6.28,1.91,12.08,2.66,17.16,5.63-7.87-1.51-15.67-3.39-23.68-3.91-2.15-.14-6.06-.63-6.2-.14-1.19,4.37-4.93.46-7.06,2.75,10.39,12.46,24.41,19.56,40,26.87A56.28,56.28,0,0,1,348,59.73c11.17,7.51,20.49,17.4,32.26,24-4.81-1-8.62-4.49-13.86-6.18,1.64,8.33,1,16.51,5.6,23.51l-.13-.12c.47,4.45,2.85,8.16,4.61,12.12a44.86,44.86,0,0,1,1.58,5c-5.53-7.59-8.45-16.42-11.15-25.2-2.07-6.71-4.59-13.07-10.08-17.38-8.34-6.53-15.75-14.1-24-20.68-2.18-1.73-4.32-3.51-7.25-5.9,5.58,22.61,17.64,39.89,34.54,54.17-11-6.89-20-15.76-28.4-25.41a166.9,166.9,0,0,0,29.55,35.42c1.89,1.74,4.59,2.87,5.06,5.86-1.06,2.49,2.16,4,1.34,6.9l-14.42-12.66c5.34,8.2,11.38,15.93,14.7,26.3l-7.29-5-.41.53,4.08,5.08c-8.42-5-14.63-12.35-20.93-19.54a57,57,0,0,1-7-9c-4-7.1-9.46-11.76-18.14-11.91,3.25-1.67,6.15.64,9.4.17-1.07-3.94-4.47-6.7-4.82-10.77,4.11,4.21,4.6,12.16,12.84,12.48-.37-3.1,0-6.33-1.18-8.88-4.56-10.13-9.57-20.06-14.44-30-.42-.88-.88-1.89-2.15-1.67-1.43.25-1.84,1.4-1.83,2.6,0,3.81-.18,7.64.84,11.38l.15-.07-1.8,3.74c-1.77-8.47-1.27-16.86-2.49-26.45-4.34,9.09-7.78,17-11.42,25q1.1-5.2,2.18-10.41c-6.69,13.58-8,27.2-.5,41.26,1.71-4.39,1.71-4.36,5.63-4.34,1.05,0,1.15-.94,1.31-1.75.87-4.33-3.86-1.64-5-3.73.61-.4,1.09-1,1.39-.87,6.83,1.94,8.82-1.77,9.06-7.63,0-.24.43-.45.66-.67l-.12-.06c.1,10.09-2.93,20-2,30.73,5-4.1,10.39-3.38,15.9-2.4s10,4,14.28,7.87c-1.86,1.79-3.66.71-5.71.12-.39,2.67,3,7.45-4.31,6.85,7,1.79,4.87,5.59,2.91,9-2.34,4-6,3.46-9.66,2.05a13,13,0,0,1-6.66-5.74c-.17-.28-.61-.71-.55-.79,4.51-6-5.24-8-3.29-13.24-2.59,3.76-2.57,4.12.79,14.27l-3.06-2.58c-2.94,1.32,4.87,26,10.33,33l.09-.1c-.89.24-2.05.11-1.24,1.75S326.16,173,326,175.15Zm4.4-32.58c4.23.45,5.53-1.91,6.25-4.89.47-1.93-1.57-3.57-2.14-3-2.49,2.75-7.22.46-8.93,4.27-.45,1,.57,1.45,1.28,1.83C328.12,141.53,329.48,142.14,330.36,142.57Zm-34-58.3c-2.77,5.43-2.77,5.86-.45,9C296.12,90,296.26,87.12,296.4,84.27Z" transform="translate(-1 -2.14)"/>
  <path d="M406.08,99.07c-4.91-1.61-8.94-4.85-13.36-7.36-2.31-1.31-3.65-1.13-5.58.47-4.56,3.78-9,7.8-15.24,8.78l.13.12c4.46-5,11-7.08,16-11.65l-7.94-5.83,8.47,2.48-5.79-5,.05-1.27c7.65,1.54,15.14.68,22.71-.51-10.78-3.1-21.45-6.34-31.61-11.12l40.2,11.44c-5.94.61-8.51,6.1-14,5.73-1.08-.08-1.74.43-1.52,2.89C399.1,93.89,404.87,94.73,406.08,99.07Z" transform="translate(-1 -2.14)"/>
  <path d="M365.19,12.58c-19.38-.11-38.34,1.74-55.48,12C326.66,13.43,345.25,9.9,365.19,12.58Z" transform="translate(-1 -2.14)"/>
  <path d="M366.79,25.66a99,99,0,0,0-45.11,7.71C335.87,25.87,350.82,22.77,366.79,25.66Z" transform="translate(-1 -2.14)"/>
  <path d="M382.12,126c-2.58-2.07-4.44-4.52-4.2-8.06.32-.1.9-.16.92-.3,1.44-9.64,9.62-13,16.63-16.88,4.25-2.37,8.53,1.41,12.42,3.21,2.79,1.3.63,4.16.28,6.22a56.83,56.83,0,0,1-2.36,7.45c-1.35-1.86-.8-3.62-1-5.25a35.81,35.81,0,0,0-.76-5.89c-.63-2.18-2.8-1.7-5.31-2.45a18.12,18.12,0,0,1,2.44,8.49c.15,3-.88,5-4.49,6.54,2.57.79,4.94,1,3.35,3.84-.87,1.56-1.1,3.47-1.92,5.07-3.19,6.18-7,6.7-13.11,2-.51-1.73-2.19-3.7,1.2-4.5.95-.23,1.79-1.54.78-2.33-1.9-1.5-5.12-4.16-6-3.6-2.66,1.77.68,3.89.95,6A4.27,4.27,0,0,0,382.12,126Zm9.36,5.4c3.1.13,7.12-5.14,6.1-8.18-.48-1.45-1.6-2.38-2.63-.43-.87,1.65-1.91,2.82-3.83,2.33-2.53-.66-3.58,1-3.68,2.77C387.31,130.28,389.35,131.1,391.48,131.4Z" transform="translate(-1 -2.14)"/>
  <path d="M316.89,75c2.95,3.13,3.46,7.17,4.14,11.14l-2.58-4.49c-2.56,1.9-.43,5.34-2.51,7.35l.12.06c-.81-4.79,1.32-9.38,1-14.13Z" transform="translate(-1 -2.14)"/>
  <path d="M382,125.88l2.1,4.36a21.43,21.43,0,0,1-10.14-6.78c2.21-1.22,3.38.29,4.87,1.57C379.49,125.61,380.14,128.85,382,125.88Z" transform="translate(-1 -2.14)"/>
  <path d="M318.09,311.2c-3.66-9.09.88-16,6.62-22,6.3-6.63,12.5-12.91,8.82-23.2.47,3,1,6.08,1.35,9.13.16,1.43.71,2.11,2.15,2L335,280c-4.49,4.63-7.84,10.1-11.38,15.43C320.41,300.23,319.76,305.89,318.09,311.2Z" transform="translate(-1 -2.14)"/>
  <path d="M352.57,206.05c-2-.6-3.17-2.19-4.53-3.57a5.59,5.59,0,0,1-2-4.91c-.65-4.32-4.45-7.29-5-11.65l-.13.1c3.87,3.25,5.56,7.91,7.54,12.29A48.19,48.19,0,0,0,352.57,206.05Z" transform="translate(-1 -2.14)"/>
  <path d="M371.42,270.94c4.91.31,8.72,2.82,12.15,6.09C378.66,276.72,374.46,275,371.42,270.94Z" transform="translate(-1 -2.14)"/>
  <path d="M264.53,307.58c-3.4,10.52-9.55,19.61-11.81,30.23-.33,1.57-1.41,1.12-2.26.79-1.38-.53-2.68-1.27-4.22-2,2.57-2.43,3.52-5.6,4.57-8.62a151.18,151.18,0,0,1,7.5-17.29C259.72,307.82,261.2,306.5,264.53,307.58Z" transform="translate(-1 -2.14)"/>
  <path d="M241.06,387.93c-3.68-.72-5.18-2-4.32-6.48,1.16-6.08,1.25-12.39,2.65-18.59,3.3,1,4.12,2.93,3.51,6.07A78.26,78.26,0,0,0,241.06,387.93Z" transform="translate(-1 -2.14)"/>
  <path d="M319.44,313c3.89-8,5.74-17,11.53-24.17,2.3,1.77.27,3.29-.45,4.65C327,300,323.91,306.62,323,314.05l-.89.91C321.2,314.32,320.32,313.67,319.44,313Z" transform="translate(-1 -2.14)"/>
  <path d="M337.78,209.47c-4.68-10-9.8-19.89-16.39-28.93C329.21,188.84,336,197.69,337.78,209.47Z" transform="translate(-1 -2.14)"/>
  <path d="M322.09,315l.89-.91c4.5.74,9.85-2.9,14,3.16C331.43,318,326.51,318.62,322.09,315Z" transform="translate(-1 -2.14)"/>
  <path d="M334.09,226.94q-1.09-10-2.17-20l1.48-.23c.88,9.33,1.61,18.69,4.55,27.65-2.12-2.2-1.58-5.59-4-7.55Z" transform="translate(-1 -2.14)"/>
  <path d="M204,306c-.19,3-3.07,4.17-4.34,6.58,3.9,2.76,9.22-.95,13,3.06l-19.21-1.82c2.91-.16,4.76-1.64,6.33-4,1-1.53,1.79-3.7,4.27-3.69Z" transform="translate(-1 -2.14)"/>
  <path d="M348,343c-5.22-5.24-5-12.3-6.48-18.78,1.75,6.41,5.07,12.31,6.37,18.87Z" transform="translate(-1 -2.14)"/>
  <path d="M274,428.57c-7.05,1.27-14.05,3.24-21-.19A85.17,85.17,0,0,0,274,428.57Z" transform="translate(-1 -2.14)"/>
  <path d="M300,262.26c-.88,6.95,3,13,3.65,19.67-3.06-5.13-3.82-11-5.1-16.68-.19-.85.94-2,1.46-3Z" transform="translate(-1 -2.14)"/>
  <path d="M216.57,327c6.45,1,10.92,3.74,15.28,6.61-5.68-1.7-10.2-4.42-15.28-6.64C216.56,327,216.57,327,216.57,327Z" transform="translate(-1 -2.14)"/>
  <path d="M463.84,153.38A37.55,37.55,0,0,1,453,139.91c3.6,3.25,6.7,7.08,10.9,9.65A2.07,2.07,0,0,1,465,152Z" transform="translate(-1 -2.14)"/>
  <path d="M463.84,153.38,465,152c2.89,4.51,8.71,6.08,11.08,11.1C471.35,160.68,467.48,157.17,463.84,153.38Z" transform="translate(-1 -2.14)"/>
  <path d="M357.2,169.91s.22-3.38,16.74-3.38c0,0,1.41,4.06-4.2,7.93a12.69,12.69,0,0,1-8.32,0C356.77,172.91,358.8,173.1,357.2,169.91Z" transform="translate(-1 -2.14)"/>
  <path d="M365.82,151.29a6.28,6.28,0,0,0,1.74,4,5.22,5.22,0,0,0,.88.68" transform="translate(-1 -2.14)"/>
  <path d="M213.48,315.68s7.79-.41,12.83.85C221.71,317.36,213.48,315.68,213.48,315.68Z" transform="translate(-1 -2.14)"/>
  <path d="M212.29,305.82A122.74,122.74,0,0,1,227,307,101.75,101.75,0,0,1,212.29,305.82Z" transform="translate(-1 -2.14)"/>
  <path d="M237.94,303.23c-4.65-2.78-12.13-1.68-12.13-1.68S233.74,303.42,237.94,303.23Z" transform="translate(-1 -2.14)"/>
  <path d="M479,228.8s40.86-2.83,56.28-2.32C515.51,222.35,481.57,228.34,479,228.8Z" transform="translate(-1 -2.14)"/>
  <path d="M472.61,215.16s31.65-33.87,50.71-46" transform="translate(-1 -2.14)"/>
  <path d="M556.32,148s48.55-25.91,86.91-30.65C606.26,128.26,556.32,148,556.32,148Z" transform="translate(-1 -2.14)"/>
  <path d="M631.9,177.52s17.42,16.25,21.2,26.42C649,197.94,631.9,177.52,631.9,177.52Z" transform="translate(-1 -2.14)"/>
  <path d="M655.81,207.23a13.82,13.82,0,0,1,1.64,8.61c1.21-4.74,4.16-3.1,4.16-3.1A15,15,0,0,0,655.81,207.23Z" transform="translate(-1 -2.14)"/>
  <path d="M625.61,221.19c2.52-1.22,1.94-4.29,1.94-4.29s3.29,4.29,7.45,13.88c-2.61-15.25-20.42-33-20.42-33S631.52,217.06,625.61,221.19Z" transform="translate(-1 -2.14)"/>
  <path d="M605.29,202.19s10.63,3.58,8.22,11.42C613.51,213.61,617.77,206.84,605.29,202.19Z" transform="translate(-1 -2.14)"/>
  <path d="M596.19,213.61s7.07-2.38,12.29.65A22.21,22.21,0,0,0,596.19,213.61Z" transform="translate(-1 -2.14)"/>
  <path d="M614.92,216a25.83,25.83,0,0,0,7.06,4.75C625.52,222.08,616.66,219.66,614.92,216Z" transform="translate(-1 -2.14)"/>
  <path d="M627.23,195.23" transform="translate(-1 -2.14)"/>
  <path d="M629.55,196.71s12.71,9.74,18.19,17.94c0,0,3,4.41,5.36,4.64" transform="translate(-1 -2.14)"/>
  <path d="M637.55,232.13s6.32-2.23-1.42-20.6C639.1,216.65,643.35,230.26,637.55,232.13Z" transform="translate(-1 -2.14)"/>
  <path d="M628.06,199s5.23,4.45,6.39,9.87C634.45,208.84,630.19,201,628.06,199Z" transform="translate(-1 -2.14)"/>
  <path d="M634.13,147.21s9.08-.84,11.27-2.84A114.19,114.19,0,0,1,634.13,147.21Z" transform="translate(-1 -2.14)"/>
  <path d="M649.66,145.79s3.93,6.77-14.84,13.23C634.82,159,654.17,153.4,649.66,145.79Z" transform="translate(-1 -2.14)"/>
  <path d="M631.13,180.17s-8.52-.76-20.23,3.39A120,120,0,0,1,631.13,180.17Z" transform="translate(-1 -2.14)"/>
  <path d="M592,177s10.19,7.09,13.29,5.8C605.29,182.77,603,185.74,592,177Z" transform="translate(-1 -2.14)"/>
  <path d="M593.29,155s6.52-10.06,29.52-8.51C622.81,146.52,608.52,145,593.29,155Z" transform="translate(-1 -2.14)"/>
  <path d="M604.81,186.23s-12.2,5.8-17,16.74A50.18,50.18,0,0,1,604.81,186.23Z" transform="translate(-1 -2.14)"/>
  <path d="M734.39,185.84s-26.91,24.68-44.23,29.22C690.16,215.06,709.32,212,734.39,185.84Z" transform="translate(-1 -2.14)"/>
  <path d="M541.81,581.74S572.65,594,587,604.84a60.87,60.87,0,0,0,32.26,8.64s-4.52-1-15.62,10.58-15,12.65-15,12.65-24.91-38.78-46.84-54.36C541.81,582.35,540.89,581.6,541.81,581.74Z" transform="translate(-1 -2.14)"/>
</svg>
